<svg xmlns="http://www.w3.org/2000/svg" width="64" height="64" viewBox="0 0 64 64">
  <defs>
    <linearGradient id="g" x1="0" x2="1" y1="0" y2="1">
      <stop offset="0%" stop-color="#ff4d4f"/>
      <stop offset="100%" stop-color="#fa8c16"/>
    </linearGradient>
  </defs>
  <rect width="64" height="64" rx="12" fill="url(#g)"/>
  <path d="M32 48c-.9 0-1.8-.3-2.5-1C23 41 18 36.4 14.8 32.2 12.7 29.6 12 27 12 24.6 12 19.7 16.1 16 20.7 16c2.6 0 5.1 1.2 6.9 3.2l1.4 1.6 1.4-1.6c1.8-2 4.3-3.2 6.9-3.2 4.6 0 8.7 3.7 8.7 8.6 0 2.4-.7 5-2.8 7.6C46 36.4 41 41 34.5 47c-.7.7-1.6 1-2.5 1z" fill="#fff"/>
</svg>
